<?xml version="1.0" standalone="no"?>
<!DOCTYPE svg PUBLIC "-//W3C//DTD SVG 20010904//EN"
 "http://www.w3.org/TR/2001/REC-SVG-20010904/DTD/svg10.dtd">
<svg version="1.0" xmlns="http://www.w3.org/2000/svg"
 width="500.000000pt" height="500.000000pt" viewBox="0 0 500.000000 500.000000"
 preserveAspectRatio="xMidYMid meet">

<g transform="translate(0.000000,500.000000) scale(0.100000,-0.100000)"
fill="#000000" stroke="none">
<path d="M1602 3397 l-1602 -1602 898 -898 897 -897 1603 1603 1602 1602 -898
898 -897 897 -1603 -1603z m1783 983 l180 -180 -1008 -1008 -1007 -1007 -182
183 -183 182 1005 1005 c553 553 1007 1005 1010 1005 3 0 86 -81 185 -180z
m1000 -1000 l180 -180 -1008 -1008 -1007 -1007 -182 183 -183 182 1005 1005
c553 553 1007 1005 1010 1005 3 0 86 -81 185 -180z m-2275 -2635 l-310 -310
-682 682 -683 683 310 310 310 310 682 -682 683 -683 -310 -310z"/>
</g>
</svg>
